<svg width="30" height="30" viewBox="0 0 30 30" fill="none" xmlns="http://www.w3.org/2000/svg">
<g clip-path="url(#clip0_184_2)">
<path d="M24.7694 30H5.23061C3.28137 30 1.69553 28.4142 1.69553 26.4649V6.92607C1.69553 4.97683 3.28131 3.39105 5.23061 3.39105H24.7695C26.7187 3.39105 28.3045 4.97683 28.3045 6.92607V26.4649C28.3045 28.4142 26.7187 30 24.7694 30ZM5.23061 4.56293C3.92754 4.56293 2.8674 5.62306 2.8674 6.92607V26.4649C2.8674 27.768 3.92754 28.8281 5.23061 28.8281H24.7695C26.0725 28.8281 27.1327 27.768 27.1327 26.4649V6.92607C27.1327 5.62306 26.0725 4.56293 24.7695 4.56293H5.23061Z" fill="#666666"/>
<path d="M27.7185 11.2089H2.28146C1.95785 11.2089 1.69553 10.9465 1.69553 10.6229C1.69553 10.2994 1.95785 10.037 2.28146 10.037H27.7185C28.0421 10.037 28.3045 10.2994 28.3045 10.6229C28.3045 10.9465 28.0421 11.2089 27.7185 11.2089ZM7.27102 7.38059C6.9474 7.38059 6.68508 7.1182 6.68508 6.79465V0.585937C6.68508 0.262383 6.9474 0 7.27102 0C7.59463 0 7.85695 0.262383 7.85695 0.585937V6.79465C7.85695 7.1182 7.59463 7.38059 7.27102 7.38059ZM14.6699 7.38059C14.3463 7.38059 14.0839 7.1182 14.0839 6.79465V0.585937C14.0839 0.262383 14.3463 0 14.6699 0C14.9935 0 15.2558 0.262383 15.2558 0.585937V6.79465C15.2558 7.1182 14.9935 7.38059 14.6699 7.38059ZM22.4684 7.38059C22.1447 7.38059 21.8824 7.1182 21.8824 6.79465V0.585937C21.8824 0.262383 22.1447 0 22.4684 0C22.792 0 23.0543 0.262383 23.0543 0.585937V6.79465C23.0543 7.1182 22.792 7.38059 22.4684 7.38059Z" fill="#666666"/>
<path d="M24.7694 30H5.23061C3.28137 30 1.69553 28.4142 1.69553 26.4649V6.92607C1.69553 4.97683 3.28131 3.39105 5.23061 3.39105H24.7695C26.7187 3.39105 28.3045 4.97683 28.3045 6.92607V26.4649C28.3045 28.4142 26.7187 30 24.7694 30ZM5.23061 4.56293C3.92754 4.56293 2.8674 5.62306 2.8674 6.92607V26.4649C2.8674 27.768 3.92754 28.8281 5.23061 28.8281H24.7695C26.0725 28.8281 27.1327 27.768 27.1327 26.4649V6.92607C27.1327 5.62306 26.0725 4.56293 24.7695 4.56293H5.23061Z" fill="#666666"/>
<path d="M21.9492 26.8711H8.05078C7.72717 26.8711 7.46484 26.6087 7.46484 26.2852V18.4336C7.46484 18.11 7.72717 17.8477 8.05078 17.8477H21.9492C22.2728 17.8477 22.5352 18.11 22.5352 18.4336V26.2852C22.5352 26.6087 22.2728 26.8711 21.9492 26.8711ZM8.63672 25.6992H21.3633V19.0195H8.63672V25.6992Z" fill="#666666"/>
<path d="M15 19.0195C14.6764 19.0195 14.4141 18.7571 14.4141 18.4336V15.5977C14.4141 15.2741 14.6764 15.0117 15 15.0117C15.3236 15.0117 15.5859 15.2741 15.5859 15.5977V18.4336C15.5859 18.7571 15.3236 19.0195 15 19.0195Z" fill="#666666"/>
<path d="M15 16.1836C14.1083 16.1836 13.3828 15.4581 13.3828 14.5663C13.3828 13.8441 14.214 12.8744 14.5714 12.4911C14.6822 12.3722 14.8375 12.3046 15 12.3046C15.1625 12.3046 15.3178 12.3721 15.4286 12.4911C15.786 12.8744 16.6172 13.8441 16.6172 14.5663C16.6172 15.4581 15.8917 16.1836 15 16.1836ZM14.9996 13.803C14.7506 14.1329 14.5667 14.4413 14.5545 14.572C14.5547 14.812 14.7544 15.0117 15 15.0117C15.2443 15.0117 15.4433 14.814 15.4453 14.5701C15.4316 14.4403 15.2463 14.1306 14.9996 13.803ZM19.418 19.0195C19.0944 19.0195 18.832 18.7571 18.832 18.4336V15.5977C18.832 15.2741 19.0944 15.0117 19.418 15.0117C19.7416 15.0117 20.0039 15.2741 20.0039 15.5977V18.4336C20.0039 18.7571 19.7416 19.0195 19.418 19.0195Z" fill="#666666"/>
<path d="M19.418 16.1836C18.5262 16.1836 17.8008 15.4581 17.8008 14.5663C17.8008 13.8441 18.632 12.8744 18.9894 12.4911C19.1002 12.3722 19.2555 12.3046 19.418 12.3046C19.5804 12.3046 19.7357 12.3721 19.8465 12.4911C20.2039 12.8744 21.0352 13.8441 21.0352 14.5663C21.0352 15.4581 20.3097 16.1836 19.418 16.1836ZM19.4176 13.803C19.1685 14.1329 18.9847 14.4413 18.9725 14.572C18.9727 14.812 19.1724 15.0117 19.418 15.0117C19.6623 15.0117 19.8613 14.814 19.8633 14.5701C19.8496 14.4403 19.6642 14.1306 19.4176 13.803ZM10.582 19.0195C10.2584 19.0195 9.99609 18.7571 9.99609 18.4336V15.5977C9.99609 15.2741 10.2584 15.0117 10.582 15.0117C10.9056 15.0117 11.168 15.2741 11.168 15.5977V18.4336C11.168 18.7571 10.9056 19.0195 10.582 19.0195Z" fill="#666666"/>
<path d="M10.582 16.1836C9.69029 16.1836 8.96484 15.4581 8.96484 14.5663C8.96484 13.8441 9.79605 12.8744 10.1535 12.4911C10.2643 12.3722 10.4196 12.3046 10.582 12.3046C10.7445 12.3046 10.8998 12.3721 11.0106 12.4911C11.368 12.8744 12.1992 13.8441 12.1992 14.5663C12.1992 15.4581 11.4738 16.1836 10.582 16.1836ZM10.1367 14.5701C10.1387 14.814 10.3377 15.0117 10.582 15.0117C10.8276 15.0117 11.0273 14.812 11.0273 14.5663C11.0154 14.4414 10.8296 14.1316 10.5818 13.8029C10.3339 14.1312 10.1506 14.4382 10.1367 14.5701ZM21.9492 20.918H8.05078C7.72717 20.918 7.46484 20.6556 7.46484 20.332C7.46484 20.0085 7.72717 19.7461 8.05078 19.7461H21.9492C22.2728 19.7461 22.5352 20.0085 22.5352 20.332C22.5352 20.6556 22.2728 20.918 21.9492 20.918ZM21.9492 25.043H8.05078C7.72717 25.043 7.46484 24.7806 7.46484 24.457C7.46484 24.1335 7.72717 23.8711 8.05078 23.8711H21.9492C22.2728 23.8711 22.5352 24.1335 22.5352 24.457C22.5352 24.7806 22.2728 25.043 21.9492 25.043ZM10.3166 22.9453C9.62795 22.9608 9.52342 21.9044 10.2018 21.7846C11.0312 21.637 11.1582 22.929 10.3166 22.9453ZM13.3137 22.9453C12.6248 22.9607 12.5211 21.9038 13.1995 21.7846C14.0289 21.6373 14.1549 22.929 13.3137 22.9453ZM16.3113 22.9453C15.6227 22.9609 15.518 21.9045 16.1965 21.7846C17.0251 21.6358 17.1534 22.9293 16.3113 22.9453ZM19.3084 22.9453C18.6197 22.9607 18.5157 21.9039 19.1942 21.7846C20.023 21.6361 20.1501 22.9291 19.3084 22.9453Z" fill="#666666"/>
</g>
<defs>
<clipPath id="clip0_184_2">
<rect width="30" height="30" fill="white"/>
</clipPath>
</defs>
</svg>
