<svg width="15" height="20" viewBox="0 0 15 20" fill="none" xmlns="http://www.w3.org/2000/svg">
<path d="M5.80108 9.95803L14.3017 3.23809C14.749 2.88243 15 2.4013 15 1.8998C15 1.3983 14.749 0.917178 14.3017 0.56151C14.0785 0.383587 13.8129 0.242364 13.5203 0.145991C13.2277 0.0496174 12.9138 0 12.5968 0C12.2798 0 11.9659 0.0496174 11.6733 0.145991C11.3807 0.242364 11.1151 0.383587 10.8919 0.56151L0.710303 8.61025C0.485232 8.78672 0.306589 8.99667 0.184678 9.22799C0.0627666 9.45932 0 9.70743 0 9.95803C0 10.2086 0.0627666 10.4567 0.184678 10.6881C0.306589 10.9194 0.485232 11.1293 0.710303 11.3058L10.8919 19.4495C11.1162 19.6254 11.3823 19.7646 11.6749 19.8591C11.9675 19.9535 12.2808 20.0014 12.5968 20C12.9128 20.0014 13.2261 19.9535 13.5187 19.8591C13.8112 19.7646 14.0773 19.6254 14.3017 19.4495C14.749 19.0938 15 18.6127 15 18.1112C15 17.6097 14.749 17.1285 14.3017 16.7729L5.80108 9.95803Z" fill="white"/>
</svg>
