<svg width="30" height="30" viewBox="0 0 30 30" fill="none" xmlns="http://www.w3.org/2000/svg">
<path d="M22.3199 3.5973H24.5764C26.0688 3.5973 27.4251 4.2962 28.4075 5.42135C29.3898 6.54651 30 8.10044 30 9.80942V23.7877C30 25.4972 29.39 27.0506 28.4077 28.1758C27.4253 29.3011 26.0688 30 24.5764 30H5.42361C3.93118 30 2.57494 29.3011 1.59262 28.1758C0.610167 27.0506 0 25.4972 0 23.7877V9.80942C0 8.09997 0.610167 6.54635 1.59262 5.4212C2.57494 4.29588 3.93118 3.5973 5.42361 3.5973H7.68019C7.89343 2.80592 8.31007 2.10969 8.82251 1.54688C9.69382 0.589308 10.8899 0 11.816 0H18.1839C19.1099 0 20.3062 0.589308 21.1774 1.54688C21.6897 2.10969 22.1063 2.80592 22.3198 3.5973H22.3199ZM15 9.22732C16.8249 9.22732 18.4779 10.075 19.674 11.445C20.8702 12.8152 21.6103 14.7084 21.6103 16.7988C21.6103 18.8891 20.8702 20.7822 19.674 22.1524C18.4776 23.5225 16.8252 24.3701 15 24.3701C13.1748 24.3701 11.5224 23.5225 10.326 22.1524C9.12992 20.7821 8.38986 18.8892 8.38986 16.7988C8.38986 14.7082 9.12992 12.8154 10.326 11.445C11.5221 10.075 13.1751 9.22732 15 9.22732ZM18.2362 13.0921C17.4082 12.1438 16.264 11.5573 15 11.5573C13.7361 11.5573 12.5918 12.1438 11.7638 13.0921C10.9362 14.0404 10.4239 15.3512 10.4239 16.7988C10.4239 18.2463 10.9362 19.5572 11.7638 20.5054C12.5918 21.4535 13.7361 22.0403 15 22.0403C16.2637 22.0403 17.4082 21.4535 18.2362 20.5054C19.0641 19.5572 19.5761 18.2464 19.5761 16.7988C19.5761 15.351 19.0641 14.0404 18.2362 13.0921ZM24.5764 5.9271H21.4575C20.896 5.9271 20.4406 5.40552 20.4406 4.76228C20.4406 4.18724 20.1588 3.64684 19.7712 3.22121C19.2693 2.66952 18.6372 2.32995 18.184 2.32995H11.8161C11.363 2.32995 10.7309 2.66952 10.229 3.22121C9.84137 3.647 9.55955 4.18724 9.55955 4.76228C9.55955 5.40552 9.10419 5.9271 8.54261 5.9271H5.42375C4.49249 5.9271 3.64512 6.36434 3.03058 7.06825C2.41603 7.77231 2.03416 8.74289 2.03416 9.80957V23.7879C2.03416 24.8543 2.41603 25.8251 3.03058 26.5291C3.64526 27.233 4.49262 27.6704 5.42375 27.6704H24.5765C25.5078 27.6704 26.3554 27.233 26.9698 26.5291C27.5845 25.825 27.9661 24.8546 27.9661 23.7879V9.80957C27.9661 8.74321 27.5844 7.77231 26.9697 7.06856C26.355 6.3645 25.5077 5.9271 24.5765 5.9271H24.5764Z" fill="#777777"/>
</svg>
