<svg width="30" height="30" viewBox="0 0 30 30" fill="none" xmlns="http://www.w3.org/2000/svg">
<path fill-rule="evenodd" clip-rule="evenodd" d="M24.6875 12.5C24.6875 13.0178 24.2677 13.4375 23.75 13.4375H6.25C5.73224 13.4375 5.3125 13.0178 5.3125 12.5C5.3125 11.9822 5.73224 11.5625 6.25 11.5625H23.75C24.2677 11.5625 24.6875 11.9822 24.6875 12.5Z" fill="url(#paint0_linear_68_83)"/>
<path fill-rule="evenodd" clip-rule="evenodd" d="M24.6875 17.5C24.6875 18.0178 24.2677 18.4375 23.75 18.4375H6.25C5.73224 18.4375 5.3125 18.0178 5.3125 17.5C5.3125 16.9822 5.73224 16.5625 6.25 16.5625H23.75C24.2677 16.5625 24.6875 16.9822 24.6875 17.5Z" fill="url(#paint1_linear_68_83)"/>
<path fill-rule="evenodd" clip-rule="evenodd" d="M24.6875 7.5C24.6875 8.01776 24.2677 8.4375 23.75 8.4375H6.25C5.73224 8.4375 5.3125 8.01776 5.3125 7.5C5.3125 6.98224 5.73224 6.5625 6.25 6.5625H23.75C24.2677 6.5625 24.6875 6.98224 24.6875 7.5Z" fill="url(#paint2_linear_68_83)"/>
<path fill-rule="evenodd" clip-rule="evenodd" d="M24.6875 22.5C24.6875 23.0178 24.2677 23.4375 23.75 23.4375H6.25C5.73224 23.4375 5.3125 23.0178 5.3125 22.5C5.3125 21.9822 5.73224 21.5625 6.25 21.5625H23.75C24.2677 21.5625 24.6875 21.9822 24.6875 22.5Z" fill="url(#paint3_linear_68_83)"/>
<defs>
<linearGradient id="paint0_linear_68_83" x1="15" y1="6.5625" x2="15" y2="23.4375" gradientUnits="userSpaceOnUse">
<stop stop-color="#854D9C"/>
<stop offset="1" stop-color="#CD4ED3"/>
</linearGradient>
<linearGradient id="paint1_linear_68_83" x1="15" y1="6.5625" x2="15" y2="23.4375" gradientUnits="userSpaceOnUse">
<stop stop-color="#854D9C"/>
<stop offset="1" stop-color="#CD4ED3"/>
</linearGradient>
<linearGradient id="paint2_linear_68_83" x1="15" y1="6.5625" x2="15" y2="23.4375" gradientUnits="userSpaceOnUse">
<stop stop-color="#854D9C"/>
<stop offset="1" stop-color="#CD4ED3"/>
</linearGradient>
<linearGradient id="paint3_linear_68_83" x1="15" y1="6.5625" x2="15" y2="23.4375" gradientUnits="userSpaceOnUse">
<stop stop-color="#854D9C"/>
<stop offset="1" stop-color="#CD4ED3"/>
</linearGradient>
</defs>
</svg>
