<svg width="29" height="19" viewBox="0 0 29 19" fill="none" xmlns="http://www.w3.org/2000/svg">
<path d="M27.8 0.0499992H1.2C0.815 0.0499992 0.5 0.364999 0.5 0.749999V18.25C0.5 18.635 0.815 18.95 1.2 18.95H27.8C28.185 18.95 28.5 18.635 28.5 18.25V0.749999C28.5 0.364999 28.185 0.0499992 27.8 0.0499992ZM26.12 1.45L14.5 13.07L2.88 1.45H26.12ZM1.9 2.43L8.97 9.5L1.9 16.57V2.43ZM2.915 17.55L9.95 10.515L14.01 14.575C14.29 14.855 14.71 14.855 14.99 14.575L19.05 10.515L26.085 17.55H2.915ZM27.1 16.57L20.03 9.5L27.1 2.43V16.57Z" fill="#666666"/>
</svg>
