<svg width="20" height="24" viewBox="0 0 20 24" fill="none" xmlns="http://www.w3.org/2000/svg">
<path d="M19.5942 2.4143H14.1421V2.26017C14.1421 1.85728 13.7319 1.52939 13.2277 1.52939H12.2844C12.0916 0.661313 11.1406 0 9.99994 0C8.85942 0 7.90835 0.661313 7.71561 1.52934H6.77246C6.26819 1.52934 5.858 1.85723 5.858 2.26013V2.41425H0.405847C0.18166 2.41425 0 2.55952 0 2.73858V23.6757C0 23.8547 0.18166 24 0.405847 24H19.5942C19.8183 24 20 23.8547 20 23.6757V2.73858C20 2.55956 19.8183 2.4143 19.5942 2.4143ZM6.26385 5.12691H13.7363C13.9605 5.12691 14.1421 4.98164 14.1421 4.80258V4.24195H17.7129V22.1723H2.28709V4.24195H5.858V4.80253C5.858 4.98164 6.03966 5.12691 6.26385 5.12691ZM6.6697 2.26013C6.6697 2.21559 6.71674 2.178 6.77246 2.178H8.08579C8.30986 2.178 8.49152 2.03292 8.49164 1.85367C8.49176 1.18917 9.16842 0.648656 9.99994 0.648656C10.8315 0.648656 11.5082 1.18922 11.5084 1.85367C11.5085 2.03292 11.6901 2.178 11.9142 2.178H13.2277C13.2834 2.178 13.3304 2.21559 13.3304 2.26013V4.47825H6.6697V2.26013ZM19.1883 23.3513H0.811694V3.06291H5.85806V3.5933H1.8813C1.65712 3.5933 1.47546 3.73856 1.47546 3.91762V22.4966C1.47546 22.6756 1.65712 22.8209 1.8813 22.8209H18.1188C18.343 22.8209 18.5247 22.6756 18.5247 22.4966V3.91767C18.5247 3.73861 18.343 3.59334 18.1188 3.59334H14.1422V3.06291H19.1884L19.1883 23.3513ZM9.99994 0.913406C9.35102 0.913406 8.82299 1.33552 8.82299 1.85409C8.82299 2.37267 9.35102 2.79478 9.99994 2.79478C10.649 2.79478 11.1771 2.37267 11.1771 1.85409C11.1771 1.33552 10.649 0.913406 9.99994 0.913406ZM9.99994 2.14613C9.79845 2.14613 9.63469 2.0152 9.63469 1.85409C9.63469 1.69298 9.79851 1.56206 9.99994 1.56206C10.2014 1.56206 10.3654 1.69298 10.3654 1.85409C10.3654 2.0152 10.2014 2.14613 9.99994 2.14613ZM6.99536 8.59373C6.99536 8.41467 7.17702 8.26941 7.40121 8.26941H15.8883C16.1125 8.26941 16.2942 8.41467 16.2942 8.59373C16.2942 8.7728 16.1125 8.91806 15.8883 8.91806H7.40121C7.17702 8.91806 6.99536 8.7728 6.99536 8.59373ZM5.85765 7.58845C5.9698 7.43325 6.21804 7.38005 6.41196 7.46977C6.60605 7.5593 6.67263 7.75758 6.56048 7.91273L5.44189 9.46111C5.3881 9.53564 5.29947 9.58992 5.19553 9.61228C5.16092 9.61969 5.12567 9.62325 5.09048 9.62325C5.0198 9.62325 4.94976 9.60848 4.88758 9.57975L3.90878 9.12811C3.71468 9.03858 3.64811 8.8403 3.76026 8.68514C3.87241 8.52994 4.12041 8.47674 4.31457 8.56645L4.94196 8.85595L5.85765 7.58845ZM6.99536 11.7154C6.99536 11.5363 7.17702 11.391 7.40121 11.391H15.8883C16.1125 11.391 16.2942 11.5363 16.2942 11.7154C16.2942 11.8944 16.1125 12.0397 15.8883 12.0397H7.40121C7.17702 12.0397 6.99536 11.8944 6.99536 11.7154ZM6.56042 11.0344L5.44183 12.5826C5.36663 12.6867 5.23032 12.7447 5.09001 12.7447C5.0212 12.7447 4.9514 12.7308 4.88747 12.7012L3.90866 12.2498C3.71456 12.1602 3.64799 11.9619 3.76002 11.8068C3.87206 11.6516 4.12029 11.5986 4.31451 11.6881L4.94178 11.9774L5.85759 10.71C5.96975 10.5551 6.21798 10.5016 6.4119 10.5914C6.60605 10.6809 6.67263 10.8792 6.56042 11.0344ZM6.99536 14.837C6.99536 14.658 7.17702 14.5127 7.40121 14.5127H15.8883C16.1125 14.5127 16.2942 14.658 16.2942 14.837C16.2942 15.0161 16.1125 15.1613 15.8883 15.1613H7.40121C7.17702 15.1613 6.99536 15.016 6.99536 14.837ZM6.56042 14.156L5.44183 15.7042C5.36663 15.8083 5.23032 15.8663 5.09001 15.8663C5.0212 15.8663 4.9514 15.8524 4.88747 15.8228L3.90866 15.3713C3.71456 15.2818 3.64799 15.0835 3.76002 14.9284C3.87206 14.7732 4.12029 14.72 4.31451 14.8097L4.94178 15.099L5.85759 13.8316C5.96975 13.6764 6.21798 13.6232 6.4119 13.713C6.60605 13.8026 6.67263 14.0009 6.56042 14.156ZM6.99536 17.9584C6.99536 17.7794 7.17702 17.6341 7.40121 17.6341H15.8883C16.1125 17.6341 16.2942 17.7794 16.2942 17.9584C16.2942 18.1375 16.1125 18.2828 15.8883 18.2828H7.40121C7.17702 18.2828 6.99536 18.1374 6.99536 17.9584ZM6.56042 17.2775L5.44183 18.8258C5.38804 18.9004 5.29941 18.9547 5.19547 18.977C5.16087 18.9844 5.12561 18.988 5.09042 18.988C5.01974 18.988 4.9497 18.9732 4.88753 18.9445L3.90872 18.4928C3.71462 18.4033 3.64805 18.205 3.7602 18.0499C3.87235 17.8947 4.12035 17.8415 4.31451 17.9312L4.9419 18.2207L5.85753 16.9531C5.96969 16.7982 6.21792 16.7447 6.41184 16.8345C6.60605 16.924 6.67263 17.1223 6.56042 17.2775Z" fill="#808080"/>
</svg>
