<svg width="18" height="18" viewBox="0 0 18 18" fill="none" xmlns="http://www.w3.org/2000/svg">
<g clip-path="url(#clip0_68_153)">
<path d="M5.55938 8.99998C4.54688 9.03123 3.71875 9.43123 3.075 10.2H1.81875C1.30625 10.2 0.874999 10.0734 0.525003 9.8203C0.175001 9.56717 0 9.19686 0 8.70936C0 6.50311 0.387499 5.39998 1.1625 5.39998C1.2 5.39998 1.33593 5.4656 1.57031 5.59685C1.80468 5.7281 2.10937 5.86092 2.48437 5.9953C2.85937 6.12967 3.23125 6.19685 3.6 6.19685C4.01875 6.19685 4.43437 6.12498 4.84687 5.98123C4.81563 6.21248 4.8 6.41873 4.8 6.59998C4.8 7.46873 5.05313 8.26873 5.55938 8.99998ZM15.6 14.9719C15.6 15.7219 15.3719 16.314 14.9156 16.7484C14.4594 17.1828 13.8531 17.4 13.0969 17.4H4.90312C4.14687 17.4 3.54063 17.1828 3.08438 16.7484C2.62812 16.314 2.4 15.7219 2.4 14.9719C2.4 14.6406 2.41094 14.3172 2.43281 14.0015C2.45469 13.6859 2.49844 13.3453 2.56407 12.9797C2.62969 12.614 2.7125 12.275 2.8125 11.9625C2.9125 11.65 3.04687 11.3453 3.21562 11.0484C3.38437 10.7515 3.57812 10.4984 3.79688 10.289C4.01563 10.0797 4.28281 9.91248 4.59844 9.78748C4.91406 9.66248 5.2625 9.59998 5.64375 9.59998C5.70625 9.59998 5.84062 9.66716 6.04688 9.80154C6.25312 9.93592 6.48125 10.0859 6.73125 10.2515C6.98125 10.4172 7.31563 10.5672 7.73438 10.7015C8.15312 10.8359 8.575 10.9031 9 10.9031C9.425 10.9031 9.84688 10.8359 10.2656 10.7015C10.6844 10.5672 11.0187 10.4172 11.2688 10.2515C11.5188 10.0859 11.7469 9.93592 11.9531 9.80154C12.1594 9.66716 12.2937 9.59998 12.3562 9.59998C12.7375 9.59998 13.0859 9.66248 13.4016 9.78748C13.7172 9.91248 13.9844 10.0797 14.2031 10.289C14.4219 10.4984 14.6156 10.7515 14.7844 11.0484C14.9531 11.3453 15.0875 11.65 15.1875 11.9625C15.2875 12.275 15.3703 12.614 15.4359 12.9797C15.5016 13.3453 15.5453 13.6859 15.5672 14.0015C15.5891 14.3172 15.6 14.6406 15.6 14.9719ZM6 2.99998C6 3.66248 5.76562 4.2281 5.29687 4.69685C4.82812 5.1656 4.2625 5.39998 3.6 5.39998C2.9375 5.39998 2.37188 5.1656 1.90313 4.69685C1.43438 4.2281 1.2 3.66248 1.2 2.99998C1.2 2.33748 1.43438 1.77185 1.90313 1.3031C2.37188 0.834351 2.9375 0.599976 3.6 0.599976C4.2625 0.599976 4.82812 0.834351 5.29687 1.3031C5.76562 1.77185 6 2.33748 6 2.99998ZM12.6 6.59998C12.6 7.59373 12.2484 8.44217 11.5453 9.1453C10.8422 9.84842 9.99375 10.2 9 10.2C8.00625 10.2 7.15781 9.84842 6.45469 9.1453C5.75156 8.44217 5.4 7.59373 5.4 6.59998C5.4 5.60623 5.75156 4.75779 6.45469 4.05467C7.15781 3.35154 8.00625 2.99998 9 2.99998C9.99375 2.99998 10.8422 3.35154 11.5453 4.05467C12.2484 4.75779 12.6 5.60623 12.6 6.59998ZM18 8.70936C18 9.19686 17.825 9.56717 17.475 9.8203C17.125 10.0734 16.6938 10.2 16.1812 10.2H14.925C14.2812 9.43123 13.4531 9.03123 12.4406 8.99998C12.9469 8.26873 13.2 7.46873 13.2 6.59998C13.2 6.41873 13.1844 6.21248 13.1531 5.98123C13.5656 6.12498 13.9813 6.19685 14.4 6.19685C14.7688 6.19685 15.1406 6.12967 15.5156 5.9953C15.8906 5.86092 16.1953 5.7281 16.4297 5.59685C16.6641 5.4656 16.8 5.39998 16.8375 5.39998C17.6125 5.39998 18 6.50311 18 8.70936ZM16.8 2.99998C16.8 3.66248 16.5656 4.2281 16.0969 4.69685C15.6281 5.1656 15.0625 5.39998 14.4 5.39998C13.7375 5.39998 13.1719 5.1656 12.7031 4.69685C12.2344 4.2281 12 3.66248 12 2.99998C12 2.33748 12.2344 1.77185 12.7031 1.3031C13.1719 0.834351 13.7375 0.599976 14.4 0.599976C15.0625 0.599976 15.6281 0.834351 16.0969 1.3031C16.5656 1.77185 16.8 2.33748 16.8 2.99998Z" fill="#5B5B5B"/>
</g>
<defs>
<clipPath id="clip0_68_153">
<rect width="18" height="18" fill="white"/>
</clipPath>
</defs>
</svg>
