<svg width="25" height="25" viewBox="0 0 25 25" fill="none" xmlns="http://www.w3.org/2000/svg">
<path fill-rule="evenodd" clip-rule="evenodd" d="M12.5 12.5C15.5697 12.5 18.0556 10.0142 18.0556 6.94444C18.0556 3.87472 15.5697 1.38889 12.5 1.38889C9.43028 1.38889 6.94444 3.87472 6.94444 6.94444C6.94444 10.0142 9.43028 12.5 12.5 12.5ZM19.4444 6.94444C19.4444 10.7812 16.3368 13.8889 12.5 13.8889C8.66319 13.8889 5.55556 10.7812 5.55556 6.94444C5.55556 3.10764 8.66319 0 12.5 0C16.3368 0 19.4444 3.10764 19.4444 6.94444ZM2.23853 19.5916C1.54193 20.1535 1.38889 20.5758 1.38889 20.8333V23.6111H23.6111V20.8333C23.6111 20.5758 23.4581 20.1535 22.7615 19.5916C22.0804 19.0422 21.0653 18.5187 19.8349 18.066C17.3749 17.1609 14.4119 16.6667 12.5 16.6667C10.5881 16.6667 7.62507 17.1609 5.16514 18.066C3.93465 18.5187 2.91958 19.0422 2.23853 19.5916ZM12.5 15.2778C8.32812 15.2778 0 17.3852 0 20.8333V25H25V20.8333C25 17.3852 16.6719 15.2778 12.5 15.2778Z" fill="#333333"/>
</svg>
