<svg width="15" height="15" viewBox="0 0 15 15" fill="none" xmlns="http://www.w3.org/2000/svg">
<g clip-path="url(#clip0_245_2)">
<path d="M7.5 14.5312C3.62297 14.5312 0.46875 11.377 0.46875 7.5C0.46875 5.79094 1.08891 4.14375 2.21578 2.86172C2.30156 2.76469 2.44969 2.75578 2.54672 2.84062C2.64375 2.92594 2.65313 3.07453 2.56828 3.17156C1.51641 4.36734 0.9375 5.90484 0.9375 7.5C0.9375 11.1187 3.88125 14.0625 7.5 14.0625C11.1187 14.0625 14.0625 11.1187 14.0625 7.5C14.0625 3.88125 11.1187 0.9375 7.5 0.9375C6.32625 0.9375 5.175 1.25063 4.17047 1.84359C4.06031 1.90781 3.91594 1.87219 3.84984 1.76063C3.78375 1.64953 3.82078 1.50563 3.93281 1.43953C5.00906 0.804375 6.24234 0.46875 7.5 0.46875C11.377 0.46875 14.5312 3.62297 14.5312 7.5C14.5312 11.377 11.377 14.5312 7.5 14.5312Z" fill="#263238"/>
<path d="M7.5 13.3594C4.26891 13.3594 1.64062 10.7311 1.64062 7.5C1.64062 4.26891 4.26891 1.64062 7.5 1.64062C10.7311 1.64062 13.3594 4.26891 13.3594 7.5C13.3594 10.7311 10.7311 13.3594 7.5 13.3594ZM7.5 2.10938C4.52766 2.10938 2.10938 4.52766 2.10938 7.5C2.10938 10.4723 4.52766 12.8906 7.5 12.8906C10.4723 12.8906 12.8906 10.4723 12.8906 7.5C12.8906 4.52766 10.4723 2.10938 7.5 2.10938Z" fill="#263238"/>
<path d="M9.72656 3.87655C9.66563 3.87655 9.60469 3.85311 9.56203 3.81093C9.51516 3.76405 9.49219 3.70311 9.49219 3.64218C9.49219 3.58124 9.51563 3.5203 9.56203 3.47811C9.65109 3.38905 9.80625 3.38905 9.89016 3.47811C9.9375 3.5203 9.96047 3.58124 9.96047 3.64218C9.96047 3.70311 9.9375 3.76405 9.89063 3.80624C9.84844 3.85311 9.7875 3.87655 9.72656 3.87655ZM5.27344 11.5917C5.2125 11.5917 5.15156 11.5636 5.10891 11.5219C5.06203 11.4745 5.03906 11.4141 5.03906 11.3573C5.03906 11.2964 5.0625 11.2355 5.10469 11.1891C5.19375 11.1042 5.35313 11.1042 5.4375 11.1891C5.48484 11.2359 5.50781 11.2964 5.50781 11.3573C5.50781 11.4136 5.48438 11.4745 5.44172 11.5219C5.39531 11.5641 5.33437 11.5917 5.27344 11.5917ZM11.3573 5.5078C11.2964 5.5078 11.2355 5.48436 11.1933 5.44171C11.1464 5.39483 11.123 5.33436 11.123 5.27343C11.123 5.21249 11.1469 5.15155 11.1891 5.10889C11.2823 5.01561 11.437 5.0203 11.5219 5.10889C11.5641 5.15155 11.5917 5.21249 11.5917 5.27343C11.5917 5.33436 11.5683 5.3953 11.5219 5.43749C11.4797 5.48436 11.4183 5.5078 11.3573 5.5078ZM3.64219 9.96093C3.58125 9.96093 3.525 9.93749 3.47813 9.89483C3.43078 9.84374 3.40781 9.7828 3.40781 9.72655C3.40781 9.66561 3.43125 9.60936 3.47391 9.56202C3.57703 9.46874 3.72187 9.47343 3.81141 9.56202C3.85359 9.60468 3.87703 9.66561 3.87703 9.72655C3.87703 9.78749 3.85359 9.84843 3.81141 9.89061C3.76406 9.93749 3.70781 9.96093 3.64219 9.96093ZM11.9531 7.73436C11.8922 7.73436 11.8313 7.71093 11.7886 7.66405C11.7422 7.62186 11.7188 7.56093 11.7188 7.49999C11.7188 7.43905 11.7422 7.37811 11.7886 7.33546C11.8734 7.24686 12.0281 7.24686 12.1167 7.33077C12.1641 7.37811 12.1875 7.43905 12.1875 7.49999C12.1875 7.56093 12.1641 7.62186 12.1214 7.66405C12.075 7.71093 12.0141 7.73436 11.9531 7.73436ZM3.04688 7.73436C2.98594 7.73436 2.925 7.71093 2.88234 7.66405C2.83594 7.62186 2.8125 7.56093 2.8125 7.49999C2.8125 7.43905 2.83594 7.37811 2.88234 7.33546C2.96719 7.24686 3.12187 7.24686 3.21047 7.33077C3.25781 7.37811 3.28125 7.43905 3.28125 7.49999C3.28125 7.56093 3.25781 7.62186 3.21516 7.66405C3.16875 7.71093 3.10781 7.73436 3.04688 7.73436Z" fill="#263238"/>
<path d="M11.3573 9.96096C11.2964 9.96096 11.2355 9.93752 11.1891 9.89486C11.1469 9.84799 11.123 9.78752 11.123 9.72658C11.123 9.66564 11.1469 9.60471 11.1891 9.56205C11.2823 9.46877 11.437 9.47346 11.5219 9.56205C11.5641 9.60471 11.5917 9.66564 11.5917 9.72658C11.5917 9.78752 11.5683 9.84846 11.5219 9.89064C11.4797 9.93752 11.4183 9.96096 11.3573 9.96096ZM3.64219 5.50783C3.58125 5.50783 3.525 5.48439 3.47813 5.44174C3.43078 5.39064 3.40781 5.32971 3.40781 5.27346C3.40781 5.21252 3.43125 5.15627 3.47391 5.10892C3.57703 5.01564 3.72188 5.02033 3.81141 5.10892C3.8536 5.15158 3.87703 5.21252 3.87703 5.27346C3.87703 5.33439 3.8536 5.39533 3.81141 5.43752C3.76406 5.48439 3.70266 5.50783 3.64219 5.50783Z" fill="#263238"/>
<path d="M9.72656 11.5917C9.66563 11.5917 9.60469 11.5683 9.56203 11.5261C9.51516 11.4745 9.49219 11.4183 9.49219 11.3573C9.49219 11.2964 9.51562 11.2354 9.55781 11.189C9.65156 11.1 9.80203 11.1042 9.89063 11.189C9.93797 11.2359 9.96094 11.2964 9.96094 11.3573C9.96094 11.4136 9.9375 11.4745 9.89484 11.5218C9.84844 11.5687 9.7875 11.5917 9.72656 11.5917ZM5.27344 3.87654C5.2125 3.87654 5.15156 3.8531 5.10891 3.80669C5.0625 3.76404 5.03906 3.70263 5.03906 3.64216C5.03906 3.58169 5.0625 3.52029 5.10891 3.4781C5.19375 3.38904 5.34844 3.38904 5.43703 3.47341C5.48437 3.52029 5.50734 3.58076 5.50734 3.64169C5.50734 3.70263 5.48438 3.76404 5.4375 3.80623C5.39063 3.8531 5.33437 3.87654 5.27344 3.87654Z" fill="#263238"/>
<path d="M7.5 12.1875C7.43906 12.1875 7.38281 12.1641 7.33547 12.1214C7.28906 12.0703 7.26562 12.0141 7.26562 11.9531C7.26562 11.8922 7.28906 11.8313 7.33125 11.7886C7.42969 11.6953 7.57969 11.7 7.66406 11.7886C7.71094 11.8313 7.73438 11.8922 7.73438 11.9531C7.73438 12.0141 7.71094 12.075 7.66406 12.1172C7.62188 12.1641 7.56094 12.1875 7.5 12.1875ZM7.5 3.28127C7.43906 3.28127 7.38281 3.25783 7.33547 3.21517C7.28906 3.16877 7.26562 3.10783 7.26562 3.04689C7.26562 2.9808 7.28906 2.92502 7.33125 2.88236C7.42969 2.78908 7.57969 2.79377 7.66406 2.88236C7.71094 2.92502 7.73438 2.98596 7.73438 3.04689C7.73438 3.10783 7.71094 3.16877 7.66828 3.21096C7.62187 3.25783 7.56094 3.28127 7.5 3.28127Z" fill="#263238"/>
<path d="M10.4831 4.5169C10.3917 4.4255 10.2431 4.4255 10.1517 4.5169L7.61437 7.05425C7.7789 7.0969 7.90312 7.22112 7.94578 7.38565L10.4831 4.84831C10.575 4.75644 10.575 4.60831 10.4831 4.5169ZM7.38562 7.05425L4.51687 4.1855C4.42547 4.09409 4.27687 4.09409 4.18547 4.1855C4.09406 4.2769 4.09406 4.4255 4.18547 4.5169L7.05422 7.38565C7.09687 7.22112 7.22109 7.0969 7.38562 7.05425Z" fill="#263238"/>
<path d="M7.5 8.20312C7.11234 8.20312 6.79688 7.88766 6.79688 7.5C6.79688 7.11234 7.11234 6.79688 7.5 6.79688C7.88766 6.79688 8.20312 7.11234 8.20312 7.5C8.20312 7.88766 7.88766 8.20312 7.5 8.20312ZM7.5 7.26562C7.37109 7.26562 7.26562 7.37109 7.26562 7.5C7.26562 7.62891 7.37109 7.73438 7.5 7.73438C7.62891 7.73438 7.73438 7.62891 7.73438 7.5C7.73438 7.37109 7.62891 7.26562 7.5 7.26562Z" fill="#263238"/>
<path d="M3.51562 2.10938C3.51562 2.23828 3.41016 2.34375 3.28125 2.34375C3.15234 2.34375 3.04688 2.23828 3.04688 2.10938C3.04688 1.98047 3.15234 1.875 3.28125 1.875C3.41016 1.875 3.51562 1.98047 3.51562 2.10938Z" fill="#263238"/>
</g>
<defs>
<clipPath id="clip0_245_2">
<rect width="15" height="15" fill="white"/>
</clipPath>
</defs>
</svg>
